<svg id="Layer_1" data-name="Layer 1" xmlns="http://www.w3.org/2000/svg" viewBox="0 0 60 60"><defs><style>.cls-1{fill:#808285;}.cls-2{fill:#fff;}</style></defs><path class="cls-1" d="M-300.5,60h360V-240h-360V60ZM-0.34-239.84H59.34v59.69H-0.34v-59.69Zm0,60H59.34v59.69H-0.34v-59.69Zm0,60H59.34v59.69H-0.34v-59.69Zm0,60H59.34V-0.16H-0.34V-59.84Zm0,60H59.34V59.84H-0.34V0.16Zm-60-240H-0.66v59.69H-60.34v-59.69Zm0,60H-0.66v59.69H-60.34v-59.69Zm0,60H-0.66v59.69H-60.34v-59.69Zm0,60H-0.66V-0.16H-60.34V-59.84Zm0,60H-0.66V59.84H-60.34V0.16Zm-60-240h59.69v59.69h-59.69v-59.69Zm0,60h59.69v59.69h-59.69v-59.69Zm0,60h59.69v59.69h-59.69v-59.69Zm0,60h59.69V-0.16h-59.69V-59.84Zm0,60h59.69V59.84h-59.69V0.16Zm-60-240h59.69v59.69h-59.69v-59.69Zm0,60h59.69v59.69h-59.69v-59.69Zm0,60h59.69v59.69h-59.69v-59.69Zm0,60h59.69V-0.16h-59.69V-59.84Zm0,60h59.69V59.84h-59.69V0.16Zm-60-240h59.69v59.69h-59.69v-59.69Zm0,60h59.69v59.69h-59.69v-59.69Zm0,60h59.69v59.69h-59.69v-59.69Zm0,60h59.69V-0.16h-59.69V-59.84Zm0,60h59.69V59.84h-59.69V0.16Zm-60-240h59.69v59.69h-59.69v-59.69Zm0,60h59.69v59.69h-59.69v-59.69Zm0,60h59.69v59.69h-59.69v-59.69Zm0,60h59.69V-0.16h-59.69V-59.84Zm0,60h59.69V59.84h-59.69V0.16Z"/><path class="cls-2" d="M27,34H25.5v1.5a2.5,2.5,0,0,1-5,0V34H19a0.5,0.5,0,0,0-.5.5v7a0.5,0.5,0,0,0,.2.4l4,3a0.5,0.5,0,0,0,.6,0l4-3a0.5,0.5,0,0,0,.2-0.4v-7A0.5,0.5,0,0,0,27,34Z"/><path class="cls-2" d="M21,18h0.5V35.5a1.5,1.5,0,0,0,3,0V18H25a0.5,0.5,0,0,0,.5-0.5v-2A0.5,0.5,0,0,0,25,15H21a0.5,0.5,0,0,0-.5.5v2A0.5,0.5,0,0,0,21,18Zm0.5-2h3v1h-3V16Z"/><path class="cls-2" d="M34.5,43.5a1.5,1.5,0,0,0,3,0V24h-3V43.5Z"/><path class="cls-2" d="M41,15a0.5,0.5,0,0,0-.5.5V19h-1V15.5a0.5,0.5,0,0,0-1,0V19h-1V15.5a0.5,0.5,0,0,0-1,0V19h-1V15.5a0.5,0.5,0,0,0-1,0V19h-1V15.5a0.5,0.5,0,0,0-1,0V19h-1V15.5a0.5,0.5,0,0,0-1,0v6a0.5,0.5,0,0,0,.5.5h3.5v1h3V22H41a0.5,0.5,0,0,0,.5-0.5v-6A0.5,0.5,0,0,0,41,15Z"/></svg>