<svg id="Layer_1" data-name="Layer 1" xmlns="http://www.w3.org/2000/svg" viewBox="0 0 60 60"><defs><style>.cls-1{fill:#808285;}.cls-2{fill:#fff;}</style></defs><path class="cls-1" d="M-300,300H60V0H-300V300ZM0.16,0.16H59.84V59.84H0.16V0.16Zm0,60H59.84v59.69H0.16V60.16Zm0,60H59.84v59.69H0.16V120.16Zm0,60H59.84v59.69H0.16V180.16Zm0,60H59.84v59.69H0.16V240.16Zm-60-240H-0.16V59.84H-59.84V0.16Zm0,60H-0.16v59.69H-59.84V60.16Zm0,60H-0.16v59.69H-59.84V120.16Zm0,60H-0.16v59.69H-59.84V180.16Zm0,60H-0.16v59.69H-59.84V240.16Zm-60-240h59.69V59.84h-59.69V0.16Zm0,60h59.69v59.69h-59.69V60.16Zm0,60h59.69v59.69h-59.69V120.16Zm0,60h59.69v59.69h-59.69V180.16Zm0,60h59.69v59.69h-59.69V240.16Zm-60-240h59.69V59.84h-59.69V0.16Zm0,60h59.69v59.69h-59.69V60.16Zm0,60h59.69v59.69h-59.69V120.16Zm0,60h59.69v59.69h-59.69V180.16Zm0,60h59.69v59.69h-59.69V240.16Zm-60-240h59.69V59.84h-59.69V0.16Zm0,60h59.69v59.69h-59.69V60.16Zm0,60h59.69v59.69h-59.69V120.16Zm0,60h59.69v59.69h-59.69V180.16Zm0,60h59.69v59.69h-59.69V240.16Zm-60-240h59.69V59.84h-59.69V0.16Zm0,60h59.69v59.69h-59.69V60.16Zm0,60h59.69v59.69h-59.69V120.16Zm0,60h59.69v59.69h-59.69V180.16Zm0,60h59.69v59.69h-59.69V240.16Z"/><circle class="cls-2" cx="21.5" cy="19.5" r="0.5"/><path class="cls-2" d="M44.72,38.62a1.5,1.5,0,0,0-2.05-.37c-0.35.23-.74,0.47-1.17,0.71L39,30.86a0.5,0.5,0,0,1,.05-0.42A5.52,5.52,0,0,0,40,26.9,4.94,4.94,0,0,1,42,31a0.5,0.5,0,0,0,.95.26l2-4a0.5,0.5,0,0,0,0-.32c-0.5-2.63-2.45-3.83-6.3-3.87A3.62,3.62,0,0,0,35,22.23V26a4,4,0,0,1-8,0V22a6.8,6.8,0,0,0-1.73-4.76C23.8,15.75,21.52,15,18.5,15a0.5,0.5,0,0,0-.5.5v1.87l-2.94,5.39a0.5,0.5,0,0,0,.09.59l2,2a0.5,0.5,0,0,0,.58.09l2.56-1.28c0.59,1.1,2.13,4,2.66,5.12a0.49,0.49,0,0,1,0,.42L18.59,39c-0.47-.26-0.87-0.5-1.25-0.75a1.5,1.5,0,0,0-2.05.36A1.52,1.52,0,0,0,15,39.78a1.46,1.46,0,0,0,.64,1,26.27,26.27,0,0,0,28.68,0,1.46,1.46,0,0,0,.64-1A1.52,1.52,0,0,0,44.72,38.62ZM21.5,21A1.5,1.5,0,1,1,23,19.5,1.5,1.5,0,0,1,21.5,21Zm0.32,19.51,4.83-7.33a7.25,7.25,0,0,0,6.71,0l4.83,7.33A23.4,23.4,0,0,1,21.82,40.51Z"/><path class="cls-2" d="M31,29a3,3,0,0,0,3-3V22.64a12.17,12.17,0,0,1-6,0V26A3,3,0,0,0,31,29Z"/></svg>