<svg id="Layer_1" data-name="Layer 1" xmlns="http://www.w3.org/2000/svg" viewBox="0 0 60 60"><defs><style>.cls-1{fill:#808285;}.cls-2{fill:#fff;}</style></defs><path class="cls-1" d="M0,120H360V-180H0V120ZM300.16-179.84h59.69v59.69H300.16v-59.69Zm0,60h59.69v59.69H300.16v-59.69Zm0,60h59.69V-0.16H300.16V-59.84Zm0,60h59.69V59.84H300.16V0.16Zm0,60h59.69v59.69H300.16V60.16Zm-60-240h59.69v59.69H240.16v-59.69Zm0,60h59.69v59.69H240.16v-59.69Zm0,60h59.69V-0.16H240.16V-59.84Zm0,60h59.69V59.84H240.16V0.16Zm0,60h59.69v59.69H240.16V60.16Zm-60-240h59.69v59.69H180.16v-59.69Zm0,60h59.69v59.69H180.16v-59.69Zm0,60h59.69V-0.16H180.16V-59.84Zm0,60h59.69V59.84H180.16V0.16Zm0,60h59.69v59.69H180.16V60.16Zm-60-240h59.69v59.69H120.16v-59.69Zm0,60h59.69v59.69H120.16v-59.69Zm0,60h59.69V-0.16H120.16V-59.84Zm0,60h59.69V59.84H120.16V0.16Zm0,60h59.69v59.69H120.16V60.16Zm-60-240h59.69v59.69H60.16v-59.69Zm0,60h59.69v59.69H60.16v-59.69Zm0,60h59.69V-0.16H60.16V-59.84Zm0,60h59.69V59.84H60.16V0.16Zm0,60h59.69v59.69H60.16V60.16Zm-60-240H59.84v59.69H0.16v-59.69Zm0,60H59.84v59.69H0.16v-59.69Zm0,60H59.84V-0.16H0.16V-59.84Zm0,60H59.84V59.84H0.16V0.16Zm0,60H59.84v59.69H0.16V60.16Z"/><path class="cls-2" d="M44.69,24L37,21v0a7,7,0,0,1-6.13,6.94l2.06,3.29a0.5,0.5,0,0,1,0,.53l-2.5,4a0.5,0.5,0,0,1-.85,0l-2.5-4a0.5,0.5,0,0,1,0-.53l2.06-3.29A7,7,0,0,1,23,21v0L15.31,24a0.5,0.5,0,0,0-.29.63l7,20a0.5,0.5,0,0,0,.47.34h15A0.5,0.5,0,0,0,38,44.67l7-20A0.5,0.5,0,0,0,44.69,24Z"/><path class="cls-2" d="M30,27a6,6,0,0,0,6-6V20.56l-0.06,0A1.49,1.49,0,0,1,35,19.15V15.5a0.5,0.5,0,0,0-.5-0.5h-9a0.5,0.5,0,0,0-.5.5v3.65a1.49,1.49,0,0,1-.94,1.39l-0.06,0V21A6,6,0,0,0,30,27Z"/><polygon class="cls-2" points="30 34.56 31.91 31.5 30 28.44 28.09 31.5 30 34.56"/></svg>