<svg id="Layer_1" data-name="Layer 1" xmlns="http://www.w3.org/2000/svg" viewBox="0 0 60 60"><defs><style>.cls-1{fill:#808285;}.cls-2{fill:#fff;}</style></defs><path class="cls-1" d="M-120,300.5H240V0.5H-120v300ZM180.16,0.66h59.69V60.34H180.16V0.66Zm0,60h59.69v59.69H180.16V60.66Zm0,60h59.69v59.69H180.16V120.66Zm0,60h59.69v59.69H180.16V180.66Zm0,60h59.69v59.69H180.16V240.66Zm-60-240h59.69V60.34H120.16V0.66Zm0,60h59.69v59.69H120.16V60.66Zm0,60h59.69v59.69H120.16V120.66Zm0,60h59.69v59.69H120.16V180.66Zm0,60h59.69v59.69H120.16V240.66Zm-60-240h59.69V60.34H60.16V0.66Zm0,60h59.69v59.69H60.16V60.66Zm0,60h59.69v59.69H60.16V120.66Zm0,60h59.69v59.69H60.16V180.66Zm0,60h59.69v59.69H60.16V240.66Zm-60-240H59.84V60.34H0.16V0.66Zm0,60H59.84v59.69H0.16V60.66Zm0,60H59.84v59.69H0.16V120.66Zm0,60H59.84v59.69H0.16V180.66Zm0,60H59.84v59.69H0.16V240.66Zm-60-240H-0.16V60.34H-59.84V0.66Zm0,60H-0.16v59.69H-59.84V60.66Zm0,60H-0.16v59.69H-59.84V120.66Zm0,60H-0.16v59.69H-59.84V180.66Zm0,60H-0.16v59.69H-59.84V240.66Zm-60-240h59.69V60.34h-59.69V0.66Zm0,60h59.69v59.69h-59.69V60.66Zm0,60h59.69v59.69h-59.69V120.66Zm0,60h59.69v59.69h-59.69V180.66Zm0,60h59.69v59.69h-59.69V240.66Z"/><path class="cls-2" d="M23.64,33.52l6.93,2H45a4,4,0,0,0-4-4,7.89,7.89,0,0,1-5.28-2l-1.87,1.87a0.5,0.5,0,0,1-.71-0.71L35,28.79,33.71,27.5l-1.85,1.85a0.5,0.5,0,0,1-.71-0.71L33,26.79,31.71,25.5l-1.85,1.85a0.5,0.5,0,0,1-.71-0.71L31,24.79l-1-1V21a0.5,0.5,0,0,0-.51-0.5,12.77,12.77,0,0,0-5.15,1.67c-2.65,1.27-5.39,2.59-8.67,1.36A0.5,0.5,0,0,0,15,24v9.5h8.5Z"/><path class="cls-2" d="M30.36,36.48l-6.93-2H15V39a0.5,0.5,0,0,0,.5.5h8A0.5,0.5,0,0,0,24,39V37.66l6.36,1.82,0.14,0h14A0.5,0.5,0,0,0,45,39V36.5H30.5Z"/></svg>