<svg id="Layer_1" data-name="Layer 1" xmlns="http://www.w3.org/2000/svg" viewBox="0 0 60 60"><defs><style>.cls-1{fill:#808285;}.cls-2{fill:#fff;}</style></defs><path class="cls-1" d="M-180,240.5H180v-300H-180v300ZM120.16-59.34h59.69V0.34H120.16V-59.34Zm0,60h59.69V60.34H120.16V0.66Zm0,60h59.69v59.69H120.16V60.66Zm0,60h59.69v59.69H120.16V120.66Zm0,60h59.69v59.69H120.16V180.66Zm-60-240h59.69V0.34H60.16V-59.34Zm0,60h59.69V60.34H60.16V0.66Zm0,60h59.69v59.69H60.16V60.66Zm0,60h59.69v59.69H60.16V120.66Zm0,60h59.69v59.69H60.16V180.66Zm-60-240H59.84V0.34H0.16V-59.34Zm0,60H59.84V60.34H0.16V0.66Zm0,60H59.84v59.69H0.16V60.66Zm0,60H59.84v59.69H0.16V120.66Zm0,60H59.84v59.69H0.16V180.66Zm-60-240H-0.16V0.34H-59.84V-59.34Zm0,60H-0.16V60.34H-59.84V0.66Zm0,60H-0.16v59.69H-59.84V60.66Zm0,60H-0.16v59.69H-59.84V120.66Zm0,60H-0.16v59.69H-59.84V180.66Zm-60-240h59.69V0.34h-59.69V-59.34Zm0,60h59.69V60.34h-59.69V0.66Zm0,60h59.69v59.69h-59.69V60.66Zm0,60h59.69v59.69h-59.69V120.66Zm0,60h59.69v59.69h-59.69V180.66Zm-60-240h59.69V0.34h-59.69V-59.34Zm0,60h59.69V60.34h-59.69V0.66Zm0,60h59.69v59.69h-59.69V60.66Zm0,60h59.69v59.69h-59.69V120.66Zm0,60h59.69v59.69h-59.69V180.66Z"/><path class="cls-2" d="M21,38.5h1V43a0.5,0.5,0,0,0,.5.5h15A0.5,0.5,0,0,0,38,43V38.5h1v-4H21v4Zm2-3H37v7H23v-7Z"/><path class="cls-2" d="M42.5,23.5H40V21a0.5,0.5,0,0,0-1,0v5.5H38V17a0.5,0.5,0,0,0-.5-0.5h-15a0.5,0.5,0,0,0-.5.5v9.5H21V21a0.5,0.5,0,0,0-1,0v2.5H17.5A2.5,2.5,0,0,0,15,26V36a2.5,2.5,0,0,0,2.5,2.5H20V34a0.5,0.5,0,0,1,.5-0.5h19a0.5,0.5,0,0,1,.5.5v4.5h2.5A2.5,2.5,0,0,0,45,36V26A2.5,2.5,0,0,0,42.5,23.5Zm-5.5,3H23v-9H37v9Zm2.5,4h-1a0.5,0.5,0,0,1,0-1h1A0.5,0.5,0,0,1,39.5,30.5Zm3,0h-1a0.5,0.5,0,0,1,0-1h1A0.5,0.5,0,0,1,42.5,30.5Z"/></svg>