<svg id="Layer_1" data-name="Layer 1" xmlns="http://www.w3.org/2000/svg" viewBox="0 0 60 60"><defs><style>.cls-1{fill:#808285;}.cls-2{fill:#fff;}</style></defs><path class="cls-1" d="M-61,120H299V-180H-61V120ZM239.16-179.84h59.69v59.69H239.16v-59.69Zm0,60h59.69v59.69H239.16v-59.69Zm0,60h59.69V-0.16H239.16V-59.84Zm0,60h59.69V59.84H239.16V0.16Zm0,60h59.69v59.69H239.16V60.16Zm-60-240h59.69v59.69H179.16v-59.69Zm0,60h59.69v59.69H179.16v-59.69Zm0,60h59.69V-0.16H179.16V-59.84Zm0,60h59.69V59.84H179.16V0.16Zm0,60h59.69v59.69H179.16V60.16Zm-60-240h59.69v59.69H119.16v-59.69Zm0,60h59.69v59.69H119.16v-59.69Zm0,60h59.69V-0.16H119.16V-59.84Zm0,60h59.69V59.84H119.16V0.16Zm0,60h59.69v59.69H119.16V60.16Zm-60-240h59.69v59.69H59.16v-59.69Zm0,60h59.69v59.69H59.16v-59.69Zm0,60h59.69V-0.16H59.16V-59.84Zm0,60h59.69V59.84H59.16V0.16Zm0,60h59.69v59.69H59.16V60.16Zm-60-240H58.84v59.69H-0.84v-59.69Zm0,60H58.84v59.69H-0.84v-59.69Zm0,60H58.84V-0.16H-0.84V-59.84Zm0,60H58.84V59.84H-0.84V0.16Zm0,60H58.84v59.69H-0.84V60.16Zm-60-240H-1.16v59.69H-60.84v-59.69Zm0,60H-1.16v59.69H-60.84v-59.69Zm0,60H-1.16V-0.16H-60.84V-59.84Zm0,60H-1.16V59.84H-60.84V0.16Zm0,60H-1.16v59.69H-60.84V60.16Z"/><path class="cls-2" d="M42.5,28H40.82A12,12,0,0,0,37,21.07V19.5a1.5,1.5,0,0,0-1-1.41V15.5a0.5,0.5,0,0,0-.5-0.5h-13a0.5,0.5,0,0,0-.5.5v2.59a1.5,1.5,0,0,0-1,1.41v1.57a12,12,0,0,0,0,17.86V40.5a1.5,1.5,0,0,0,1,1.41V44.5a0.5,0.5,0,0,0,.5.5h13a0.5,0.5,0,0,0,.5-0.5V41.91a1.5,1.5,0,0,0,1-1.41V38.93A12,12,0,0,0,40.82,32H42.5a0.5,0.5,0,0,0,.5-0.5v-3A0.5,0.5,0,0,0,42.5,28ZM23,16H35v2H23V16ZM35,44H23V42H35v2Zm-6-4A10,10,0,1,1,39,30,10,10,0,0,1,29,40Zm13-9H40.95c0-.33.05-0.66,0.05-1s0-.67-0.05-1H42v2Z"/><path class="cls-2" d="M37.5,29.5H38A9,9,0,0,0,29.5,21V21.5a0.5,0.5,0,0,1-1,0V21A9,9,0,0,0,20,29.5H20.5a0.5,0.5,0,0,1,0,1H20A9,9,0,0,0,28.5,39V38.5a0.5,0.5,0,0,1,1,0V39A9,9,0,0,0,38,30.5H37.5A0.5,0.5,0,0,1,37.5,29.5Zm-3.65-3.65-4.5,4.5a0.5,0.5,0,0,1-.71,0l-2.5-2.5a0.5,0.5,0,1,1,.71-0.71L29,29.29l4.15-4.15A0.5,0.5,0,0,1,33.85,25.85Z"/></svg>