<svg id="Layer_1" data-name="Layer 1" xmlns="http://www.w3.org/2000/svg" viewBox="0 0 60 60"><defs><style>.cls-1{fill:#808285;}.cls-2{fill:#fff;}</style></defs><path class="cls-1" d="M-240,180H120V-120H-240V180ZM60.16-119.84h59.69v59.69H60.16v-59.69Zm0,60h59.69V-0.16H60.16V-59.84Zm0,60h59.69V59.84H60.16V0.16Zm0,60h59.69v59.69H60.16V60.16Zm0,60h59.69v59.69H60.16V120.16Zm-60-240H59.85v59.69H0.16v-59.69Zm0,60H59.85V-0.16H0.16V-59.84Zm0,60H59.85V59.84H0.16V0.16Zm0,60H59.85v59.69H0.16V60.16Zm0,60H59.85v59.69H0.16V120.16Zm-60-240H-0.15v59.69H-59.84v-59.69Zm0,60H-0.15V-0.16H-59.84V-59.84Zm0,60H-0.15V59.84H-59.84V0.16Zm0,60H-0.15v59.69H-59.84V60.16Zm0,60H-0.15v59.69H-59.84V120.16Zm-60-240h59.69v59.69h-59.69v-59.69Zm0,60h59.69V-0.16h-59.69V-59.84Zm0,60h59.69V59.84h-59.69V0.16Zm0,60h59.69v59.69h-59.69V60.16Zm0,60h59.69v59.69h-59.69V120.16Zm-60-240h59.69v59.69h-59.69v-59.69Zm0,60h59.69V-0.16h-59.69V-59.84Zm0,60h59.69V59.84h-59.69V0.16Zm0,60h59.69v59.69h-59.69V60.16Zm0,60h59.69v59.69h-59.69V120.16Zm-60-240h59.69v59.69h-59.69v-59.69Zm0,60h59.69V-0.16h-59.69V-59.84Zm0,60h59.69V59.84h-59.69V0.16Zm0,60h59.69v59.69h-59.69V60.16Zm0,60h59.69v59.69h-59.69V120.16Z"/><path class="cls-2" d="M24,26H36v1h1V26h1.5a0.5,0.5,0,0,0,0-1H37V22a7,7,0,1,0-14,0v3H21.5a0.5,0.5,0,1,0,0,1H23v1h1V26Zm0-4a6,6,0,1,1,12,0v3H24V22Z"/><path class="cls-2" d="M44.7,38.89L40.77,28.61A2.51,2.51,0,0,0,38.43,27H37v2.09a1.5,1.5,0,1,1-1,0V27H24v2.09a1.5,1.5,0,1,1-1,0V27H21.27a2.5,2.5,0,0,0-2.36,1.67L15.26,39a4.5,4.5,0,0,0,4.24,6h21A4.5,4.5,0,0,0,44.7,38.89Z"/><circle class="cls-2" cx="23.5" cy="30.5" r="0.5"/><circle class="cls-2" cx="36.5" cy="30.5" r="0.5"/></svg>