<svg id="Layer_1" data-name="Layer 1" xmlns="http://www.w3.org/2000/svg" viewBox="0 0 60 60"><defs><style>.cls-1{fill:#808285;}.cls-2{fill:#fff;}</style></defs><path class="cls-1" d="M-60,180H300V-120H-60V180ZM240.16-119.84h59.69v59.69H240.16v-59.69Zm0,60h59.69V-0.16H240.16V-59.84Zm0,60h59.69V59.84H240.16V0.16Zm0,60h59.69v59.69H240.16V60.16Zm0,60h59.69v59.69H240.16V120.16Zm-60-240h59.69v59.69H180.16v-59.69Zm0,60h59.69V-0.16H180.16V-59.84Zm0,60h59.69V59.84H180.16V0.16Zm0,60h59.69v59.69H180.16V60.16Zm0,60h59.69v59.69H180.16V120.16Zm-60-240h59.69v59.69H120.16v-59.69Zm0,60h59.69V-0.16H120.16V-59.84Zm0,60h59.69V59.84H120.16V0.16Zm0,60h59.69v59.69H120.16V60.16Zm0,60h59.69v59.69H120.16V120.16Zm-60-240h59.69v59.69H60.16v-59.69Zm0,60h59.69V-0.16H60.16V-59.84Zm0,60h59.69V59.84H60.16V0.16Zm0,60h59.69v59.69H60.16V60.16Zm0,60h59.69v59.69H60.16V120.16Zm-60-240H59.84v59.69H0.16v-59.69Zm0,60H59.84V-0.16H0.16V-59.84Zm0,60H59.84V59.84H0.16V0.16Zm0,60H59.84v59.69H0.16V60.16Zm0,60H59.84v59.69H0.16V120.16Zm-60-240H-0.16v59.69H-59.84v-59.69Zm0,60H-0.16V-0.16H-59.84V-59.84Zm0,60H-0.16V59.84H-59.84V0.16Zm0,60H-0.16v59.69H-59.84V60.16Zm0,60H-0.16v59.69H-59.84V120.16Z"/><path class="cls-2" d="M40.5,15h-21a0.5,0.5,0,0,0-.5.5V17h7.5a0.5,0.5,0,0,1,.5.5v2a0.5,0.5,0,0,1-.5.5H19v1H41V15.5A0.5,0.5,0,0,0,40.5,15Zm-7,5A1.5,1.5,0,1,1,35,18.5,1.5,1.5,0,0,1,33.5,20Zm4,0A1.5,1.5,0,1,1,39,18.5,1.5,1.5,0,0,1,37.5,20Z"/><rect class="cls-2" x="19" y="18" width="7" height="1"/><circle class="cls-2" cx="33.5" cy="18.5" r="0.5"/><circle class="cls-2" cx="37.5" cy="18.5" r="0.5"/><path class="cls-2" d="M19,44.5a0.5,0.5,0,0,0,.5.5H24V42H19v2.5Z"/><path class="cls-2" d="M19,41h5.5a0.5,0.5,0,0,1,.5.5V45H40.5a0.5,0.5,0,0,0,.5-0.5V22H19V41ZM30,24a8,8,0,1,1-8,8A8,8,0,0,1,30,24Z"/><path class="cls-2" d="M30,39a7,7,0,1,0-7-7A7,7,0,0,0,30,39Zm0-13a6,6,0,0,1,6,6c0,0.15,0,.29,0,0.43a2.79,2.79,0,0,1-1.31-.8,3.34,3.34,0,0,0-5,0,2.36,2.36,0,0,1-3.65,0,3.68,3.68,0,0,0-1.83-1A6,6,0,0,1,30,26Z"/></svg>