<svg id="Layer_1" data-name="Layer 1" xmlns="http://www.w3.org/2000/svg" viewBox="0 0 60 60"><defs><style>.cls-1{fill:#808285;}.cls-2{fill:#fff;}</style></defs><path class="cls-1" d="M-120,60.5H240v-300H-120v300ZM180.15-239.34h59.69v59.69H180.15v-59.69Zm0,60h59.69v59.69H180.15v-59.69Zm0,60h59.69v59.69H180.15v-59.69Zm0,60h59.69V0.35H180.15V-59.34Zm0,60h59.69V60.35H180.15V0.66Zm-60-240h59.69v59.69H120.15v-59.69Zm0,60h59.69v59.69H120.15v-59.69Zm0,60h59.69v59.69H120.15v-59.69Zm0,60h59.69V0.35H120.15V-59.34Zm0,60h59.69V60.35H120.15V0.66Zm-60-240h59.69v59.69H60.15v-59.69Zm0,60h59.69v59.69H60.15v-59.69Zm0,60h59.69v59.69H60.15v-59.69Zm0,60h59.69V0.35H60.15V-59.34Zm0,60h59.69V60.35H60.15V0.66Zm-60-240H59.84v59.69H0.15v-59.69Zm0,60H59.84v59.69H0.15v-59.69Zm0,60H59.84v59.69H0.15v-59.69Zm0,60H59.84V0.35H0.15V-59.34Zm0,60H59.84V60.35H0.15V0.66Zm-60-240H-0.16v59.69H-59.85v-59.69Zm0,60H-0.16v59.69H-59.85v-59.69Zm0,60H-0.16v59.69H-59.85v-59.69Zm0,60H-0.16V0.35H-59.85V-59.34Zm0,60H-0.16V60.35H-59.85V0.66Zm-60-240h59.69v59.69h-59.69v-59.69Zm0,60h59.69v59.69h-59.69v-59.69Zm0,60h59.69v59.69h-59.69v-59.69Zm0,60h59.69V0.35h-59.69V-59.34Zm0,60h59.69V60.35h-59.69V0.66Z"/><circle class="cls-2" cx="38.48" cy="30" r="0.5"/><circle class="cls-2" cx="34.49" cy="30" r="0.5"/><circle class="cls-2" cx="34.49" cy="26" r="0.5"/><path class="cls-2" d="M24,27V25.5H23V27a0.5,0.5,0,0,1-.5.5H21v1h1.5a0.5,0.5,0,0,1,.5.5v1.5h1V29a0.5,0.5,0,0,1,.5-0.5H26v-1h-1.5A0.5,0.5,0,0,1,24,27Z"/><path class="cls-2" d="M44.63,31.72l-2.4-8a2.49,2.49,0,0,0-1.43-1.58l-3.36-1.4A3.51,3.51,0,0,0,34,21.2a7,7,0,0,1-8,0,3.51,3.51,0,0,0-3.43-.43l-3.36,1.4a2.49,2.49,0,0,0-1.43,1.58l-2.4,8a8.71,8.71,0,0,0,.55,6.43,2.43,2.43,0,0,0,3.9.63l4.25-4.26a3.46,3.46,0,0,1,2.47-1h6.93a3.46,3.46,0,0,1,2.47,1l4.25,4.26a2.43,2.43,0,0,0,3.9-.63A8.71,8.71,0,0,0,44.63,31.72ZM27,29a0.5,0.5,0,0,1-.5.5H25V31a0.5,0.5,0,0,1-.5.5h-2A0.5,0.5,0,0,1,22,31V29.5h-1.5A0.5,0.5,0,0,1,20,29V27a0.5,0.5,0,0,1,.5-0.5H22V25a0.5,0.5,0,0,1,.5-0.5h2a0.5,0.5,0,0,1,.5.5v1.5h1.5a0.5,0.5,0,0,1,.5.5v2Zm3.49,0.5h-1a0.5,0.5,0,0,1,0-1h1A0.5,0.5,0,0,1,30.5,29.5Zm0-2h-1a0.5,0.5,0,0,1,0-1h1A0.5,0.5,0,0,1,30.5,27.5Zm4,4A1.5,1.5,0,1,1,36,30,1.5,1.5,0,0,1,34.49,31.5Zm0-4A1.5,1.5,0,1,1,36,26,1.5,1.5,0,0,1,34.49,27.5Zm4,4A1.5,1.5,0,1,1,40,30,1.5,1.5,0,0,1,38.48,31.5Zm0-4A1.5,1.5,0,1,1,40,26,1.5,1.5,0,0,1,38.48,27.5Z"/><circle class="cls-2" cx="38.48" cy="26" r="0.5"/></svg>