<svg id="Layer_1" data-name="Layer 1" xmlns="http://www.w3.org/2000/svg" viewBox="0 0 60 60"><defs><style>.cls-1{fill:#808285;}.cls-2{fill:#fff;}</style></defs><path class="cls-1" d="M-180,179.5H180v-300H-180v300ZM120.16-120.34h59.69v59.69H120.16v-59.69Zm0,60h59.69V-0.66H120.16V-60.34Zm0,60h59.69V59.34H120.16V-0.34Zm0,60h59.69v59.69H120.16V59.66Zm0,60h59.69v59.69H120.16V119.66Zm-60-240h59.69v59.69H60.16v-59.69Zm0,60h59.69V-0.66H60.16V-60.34Zm0,60h59.69V59.34H60.16V-0.34Zm0,60h59.69v59.69H60.16V59.66Zm0,60h59.69v59.69H60.16V119.66Zm-60-240H59.84v59.69H0.16v-59.69Zm0,60H59.84V-0.66H0.16V-60.34Zm0,60H59.84V59.34H0.16V-0.34Zm0,60H59.84v59.69H0.16V59.66Zm0,60H59.84v59.69H0.16V119.66Zm-60-240H-0.16v59.69H-59.84v-59.69Zm0,60H-0.16V-0.66H-59.84V-60.34Zm0,60H-0.16V59.34H-59.84V-0.34Zm0,60H-0.16v59.69H-59.84V59.66Zm0,60H-0.16v59.69H-59.84V119.66Zm-60-240h59.69v59.69h-59.69v-59.69Zm0,60h59.69V-0.66h-59.69V-60.34Zm0,60h59.69V59.34h-59.69V-0.34Zm0,60h59.69v59.69h-59.69V59.66Zm0,60h59.69v59.69h-59.69V119.66Zm-60-240h59.69v59.69h-59.69v-59.69Zm0,60h59.69V-0.66h-59.69V-60.34Zm0,60h59.69V59.34h-59.69V-0.34Zm0,60h59.69v59.69h-59.69V59.66Zm0,60h59.69v59.69h-59.69V119.66Z"/><path class="cls-2" d="M44.5,41.5H44V28.45a2.5,2.5,0,0,1-1,0V41.5H42.5a0.5,0.5,0,0,0,0,1h2A0.5,0.5,0,0,0,44.5,41.5Z"/><path class="cls-2" d="M17.5,41.5H17V28.45a2.5,2.5,0,0,1-1,0V41.5H15.5a0.5,0.5,0,0,0,0,1h2A0.5,0.5,0,0,0,17.5,41.5Z"/><path class="cls-2" d="M40.5,17.5h-21a0.5,0.5,0,0,0-.5.5V31a0.5,0.5,0,0,0,.5.5H28v1H27.5a0.5,0.5,0,0,0,0,1h5a0.5,0.5,0,0,0,0-1H32v-1h8.5A0.5,0.5,0,0,0,41,31V18A0.5,0.5,0,0,0,40.5,17.5ZM31,32.5H29v-1h2v1Z"/><path class="cls-2" d="M20,35v6a0.5,0.5,0,0,0,.5.5H21V42a0.5,0.5,0,0,0,1,0V41.5h5v-7H20.5A0.5,0.5,0,0,0,20,35Z"/><path class="cls-2" d="M39.5,34.5H28v3H40V35A0.5,0.5,0,0,0,39.5,34.5Z"/><path class="cls-2" d="M28,41.5H38V42a0.5,0.5,0,0,0,1,0V41.5h0.5A0.5,0.5,0,0,0,40,41V38.5H28v3Z"/><path class="cls-2" d="M16.5,22.5A1.5,1.5,0,0,0,15,24v2a1.5,1.5,0,0,0,3,0V24A1.5,1.5,0,0,0,16.5,22.5Zm0,3A0.5,0.5,0,1,1,17,25,0.5,0.5,0,0,1,16.5,25.5Z"/><path class="cls-2" d="M43.5,22.5A1.5,1.5,0,0,0,42,24v2a1.5,1.5,0,0,0,3,0V24A1.5,1.5,0,0,0,43.5,22.5Zm0,3A0.5,0.5,0,1,1,44,25,0.5,0.5,0,0,1,43.5,25.5Z"/></svg>