<svg id="Layer_1" data-name="Layer 1" xmlns="http://www.w3.org/2000/svg" viewBox="0 0 60 60"><defs><style>.cls-1{fill:#808285;}.cls-2{fill:#fff;}</style></defs><path class="cls-1" d="M-60,60H300V-240H-60V60ZM240.16-239.84h59.69v59.69H240.16v-59.69Zm0,60h59.69v59.69H240.16v-59.69Zm0,60h59.69v59.69H240.16v-59.69Zm0,60h59.69V-0.16H240.16V-59.84Zm0,60h59.69V59.84H240.16V0.16Zm-60-240h59.69v59.69H180.16v-59.69Zm0,60h59.69v59.69H180.16v-59.69Zm0,60h59.69v59.69H180.16v-59.69Zm0,60h59.69V-0.16H180.16V-59.84Zm0,60h59.69V59.84H180.16V0.16Zm-60-240h59.69v59.69H120.16v-59.69Zm0,60h59.69v59.69H120.16v-59.69Zm0,60h59.69v59.69H120.16v-59.69Zm0,60h59.69V-0.16H120.16V-59.84Zm0,60h59.69V59.84H120.16V0.16Zm-60-240h59.69v59.69H60.16v-59.69Zm0,60h59.69v59.69H60.16v-59.69Zm0,60h59.69v59.69H60.16v-59.69Zm0,60h59.69V-0.16H60.16V-59.84Zm0,60h59.69V59.84H60.16V0.16Zm-60-240H59.84v59.69H0.16v-59.69Zm0,60H59.84v59.69H0.16v-59.69Zm0,60H59.84v59.69H0.16v-59.69Zm0,60H59.84V-0.16H0.16V-59.84Zm0,60H59.84V59.84H0.16V0.16Zm-60-240H-0.16v59.69H-59.84v-59.69Zm0,60H-0.16v59.69H-59.84v-59.69Zm0,60H-0.16v59.69H-59.84v-59.69Zm0,60H-0.16V-0.16H-59.84V-59.84Zm0,60H-0.16V59.84H-59.84V0.16Z"/><path class="cls-2" d="M44.5,19H43V17.5a0.5,0.5,0,0,0-.5-0.5H31a0.5,0.5,0,0,0-.35.15L30,17.79l-0.65-.65A0.5,0.5,0,0,0,29,17H17.5a0.5,0.5,0,0,0-.5.5V19H15.5a0.5,0.5,0,0,0-.5.5v22a0.5,0.5,0,0,0,.5.5H27.79l0.15,0.15a2.91,2.91,0,0,0,4.12,0L32.21,42H44.5a0.5,0.5,0,0,0,.5-0.5v-22A0.5,0.5,0,0,0,44.5,19ZM30,40.79l-0.65-.65A0.5,0.5,0,0,0,29,40H18V18H28.79l0.85,0.85A0.5,0.5,0,0,0,30,19V40.79ZM42,40H31V18.21L31.21,18H42V40Z"/><path class="cls-2" d="M33.5,21h6a0.5,0.5,0,0,0,0-1h-6A0.5,0.5,0,0,0,33.5,21Z"/><path class="cls-2" d="M33.5,24h6a0.5,0.5,0,0,0,0-1h-6A0.5,0.5,0,0,0,33.5,24Z"/><path class="cls-2" d="M33.5,27h6a0.5,0.5,0,0,0,0-1h-6A0.5,0.5,0,0,0,33.5,27Z"/><path class="cls-2" d="M33.5,30h6a0.5,0.5,0,0,0,0-1h-6A0.5,0.5,0,0,0,33.5,30Z"/><path class="cls-2" d="M26.5,20h-6a0.5,0.5,0,0,0,0,1h6A0.5,0.5,0,0,0,26.5,20Z"/><path class="cls-2" d="M26.5,23h-6a0.5,0.5,0,0,0,0,1h6A0.5,0.5,0,0,0,26.5,23Z"/><path class="cls-2" d="M26.5,26h-6a0.5,0.5,0,0,0,0,1h6A0.5,0.5,0,0,0,26.5,26Z"/><path class="cls-2" d="M26.5,29h-6a0.5,0.5,0,0,0,0,1h6A0.5,0.5,0,0,0,26.5,29Z"/><path class="cls-2" d="M26.5,32h-6a0.5,0.5,0,0,0,0,1h6A0.5,0.5,0,0,0,26.5,32Z"/><path class="cls-2" d="M26.5,35h-6a0.5,0.5,0,0,0,0,1h6A0.5,0.5,0,0,0,26.5,35Z"/></svg>