<svg id="Layer_1" data-name="Layer 1" xmlns="http://www.w3.org/2000/svg" viewBox="0 0 60 60"><defs><style>.cls-1{fill:#808285;}.cls-2{fill:#fff;}</style></defs><path class="cls-1" d="M0,240H360V-60H0V240ZM300.16-59.84h59.69V-0.16H300.16V-59.84Zm0,60h59.69V59.84H300.16V0.16Zm0,60h59.69v59.69H300.16V60.16Zm0,60h59.69v59.69H300.16V120.16Zm0,60h59.69v59.69H300.16V180.16Zm-60-240h59.69V-0.16H240.16V-59.84Zm0,60h59.69V59.84H240.16V0.16Zm0,60h59.69v59.69H240.16V60.16Zm0,60h59.69v59.69H240.16V120.16Zm0,60h59.69v59.69H240.16V180.16Zm-60-240h59.69V-0.16H180.16V-59.84Zm0,60h59.69V59.84H180.16V0.16Zm0,60h59.69v59.69H180.16V60.16Zm0,60h59.69v59.69H180.16V120.16Zm0,60h59.69v59.69H180.16V180.16Zm-60-240h59.69V-0.16H120.16V-59.84Zm0,60h59.69V59.84H120.16V0.16Zm0,60h59.69v59.69H120.16V60.16Zm0,60h59.69v59.69H120.16V120.16Zm0,60h59.69v59.69H120.16V180.16Zm-60-240h59.69V-0.16H60.16V-59.84Zm0,60h59.69V59.84H60.16V0.16Zm0,60h59.69v59.69H60.16V60.16Zm0,60h59.69v59.69H60.16V120.16Zm0,60h59.69v59.69H60.16V180.16Zm-60-240H59.84V-0.16H0.16V-59.84Zm0,60H59.84V59.84H0.16V0.16Zm0,60H59.84v59.69H0.16V60.16Zm0,60H59.84v59.69H0.16V120.16Zm0,60H59.84v59.69H0.16V180.16Z"/><circle class="cls-2" cx="41" cy="35" r="1"/><path class="cls-2" d="M44.5,20h-7a0.5,0.5,0,0,0-.5.5v19a0.5,0.5,0,0,0,.5.5h7a0.5,0.5,0,0,0,.5-0.5v-19A0.5,0.5,0,0,0,44.5,20ZM41,37a2,2,0,1,1,2-2A2,2,0,0,1,41,37Zm1.5-11h-3a0.5,0.5,0,0,1,0-1h3A0.5,0.5,0,0,1,42.5,26Zm0-2h-3a0.5,0.5,0,0,1,0-1h3A0.5,0.5,0,0,1,42.5,24Z"/><path class="cls-2" d="M29.5,39H28V36H23v3H21.5a0.5,0.5,0,0,0,0,1h8A0.5,0.5,0,0,0,29.5,39Z"/><rect class="cls-2" x="15" y="20" width="21" height="15" rx="0.5" ry="0.5"/></svg>