<svg id="Layer_1" data-name="Layer 1" xmlns="http://www.w3.org/2000/svg" viewBox="0 0 60 60"><defs><style>.cls-1{fill:#808285;}.cls-2{fill:#fff;}</style></defs><path class="cls-1" d="M0,298.5H360V-1.5H0v300ZM300.16-1.34h59.69V58.34H300.16V-1.34Zm0,60h59.69v59.69H300.16V58.66Zm0,60h59.69v59.69H300.16V118.66Zm0,60h59.69v59.69H300.16V178.66Zm0,60h59.69v59.69H300.16V238.66Zm-60-240h59.69V58.34H240.16V-1.34Zm0,60h59.69v59.69H240.16V58.66Zm0,60h59.69v59.69H240.16V118.66Zm0,60h59.69v59.69H240.16V178.66Zm0,60h59.69v59.69H240.16V238.66Zm-60-240h59.69V58.34H180.16V-1.34Zm0,60h59.69v59.69H180.16V58.66Zm0,60h59.69v59.69H180.16V118.66Zm0,60h59.69v59.69H180.16V178.66Zm0,60h59.69v59.69H180.16V238.66Zm-60-240h59.69V58.34H120.16V-1.34Zm0,60h59.69v59.69H120.16V58.66Zm0,60h59.69v59.69H120.16V118.66Zm0,60h59.69v59.69H120.16V178.66Zm0,60h59.69v59.69H120.16V238.66Zm-60-240h59.69V58.34H60.16V-1.34Zm0,60h59.69v59.69H60.16V58.66Zm0,60h59.69v59.69H60.16V118.66Zm0,60h59.69v59.69H60.16V178.66Zm0,60h59.69v59.69H60.16V238.66Zm-60-240H59.84V58.34H0.16V-1.34Zm0,60H59.84v59.69H0.16V58.66Zm0,60H59.84v59.69H0.16V118.66Zm0,60H59.84v59.69H0.16V178.66Zm0,60H59.84v59.69H0.16V238.66Z"/><path class="cls-2" d="M44.64,20.52l-10-3h0a0.49,0.49,0,0,0-.38,0A9.1,9.1,0,0,1,30,18.5a9.1,9.1,0,0,1-4.26-.94,0.49,0.49,0,0,0-.38,0h0l-10,3a0.5,0.5,0,0,0-.35.56l1,6a0.5,0.5,0,0,0,.49.42H21V42a0.5,0.5,0,0,0,.5.5h17A0.5,0.5,0,0,0,39,42V27.5h4.5A0.5,0.5,0,0,0,44,27.08l1-6A0.5,0.5,0,0,0,44.64,20.52ZM30,21.5a3.71,3.71,0,0,1-3.9-2.68,11.46,11.46,0,0,0,7.8,0A3.71,3.71,0,0,1,30,21.5Z"/></svg>