<svg id="Layer_1" data-name="Layer 1" xmlns="http://www.w3.org/2000/svg" viewBox="0 0 60 60"><defs><style>.cls-1{fill:#808285;}.cls-2{fill:#fff;}</style></defs><path class="cls-1" d="M-60,300H300V0H-60V300ZM240.16,0.16h59.69V59.84H240.16V0.16Zm0,60h59.69v59.69H240.16V60.16Zm0,60h59.69v59.69H240.16V120.16Zm0,60h59.69v59.69H240.16V180.16Zm0,60h59.69v59.69H240.16V240.16Zm-60-240h59.69V59.84H180.16V0.16Zm0,60h59.69v59.69H180.16V60.16Zm0,60h59.69v59.69H180.16V120.16Zm0,60h59.69v59.69H180.16V180.16Zm0,60h59.69v59.69H180.16V240.16Zm-60-240h59.69V59.84H120.16V0.16Zm0,60h59.69v59.69H120.16V60.16Zm0,60h59.69v59.69H120.16V120.16Zm0,60h59.69v59.69H120.16V180.16Zm0,60h59.69v59.69H120.16V240.16Zm-60-240h59.69V59.84H60.16V0.16Zm0,60h59.69v59.69H60.16V60.16Zm0,60h59.69v59.69H60.16V120.16Zm0,60h59.69v59.69H60.16V180.16Zm0,60h59.69v59.69H60.16V240.16Zm-60-240H59.84V59.84H0.16V0.16Zm0,60H59.84v59.69H0.16V60.16Zm0,60H59.84v59.69H0.16V120.16Zm0,60H59.84v59.69H0.16V180.16Zm0,60H59.84v59.69H0.16V240.16Zm-60-240H-0.16V59.84H-59.84V0.16Zm0,60H-0.16v59.69H-59.84V60.16Zm0,60H-0.16v59.69H-59.84V120.16Zm0,60H-0.16v59.69H-59.84V180.16Zm0,60H-0.16v59.69H-59.84V240.16Z"/><path class="cls-2" d="M40.95,42.26L34.31,29H25.69L19.05,42.26a0.5,0.5,0,0,0,.25.68A27.55,27.55,0,0,0,30,45a27.55,27.55,0,0,0,10.7-2.06A0.5,0.5,0,0,0,40.95,42.26Z"/><path class="cls-2" d="M25,20.56L25.93,28h8.13L35,20.56s0,0,0,0,0,0,0,0v-5a0.5,0.5,0,0,0-1,0V20H32.45a0.5,0.5,0,0,0-.49.4,2,2,0,0,1-3.92,0A0.56,0.56,0,0,0,27.5,20H26V15.5a0.5,0.5,0,0,0-1,0v5s0,0,0,0S25,20.55,25,20.56Z"/></svg>