<svg id="Layer_1" data-name="Layer 1" xmlns="http://www.w3.org/2000/svg" viewBox="0 0 60 60"><defs><style>.cls-1{fill:#808285;}.cls-2{fill:#fff;}</style></defs><path class="cls-1" d="M-300,180H60V-120H-300V180ZM0.16-119.84H59.84v59.69H0.16v-59.69Zm0,60H59.84V-0.16H0.16V-59.84Zm0,60H59.84V59.84H0.16V0.16Zm0,60H59.84v59.69H0.16V60.16Zm0,60H59.84v59.69H0.16V120.16Zm-60-240H-0.16v59.69H-59.84v-59.69Zm0,60H-0.16V-0.16H-59.84V-59.84Zm0,60H-0.16V59.84H-59.84V0.16Zm0,60H-0.16v59.69H-59.84V60.16Zm0,60H-0.16v59.69H-59.84V120.16Zm-60-240h59.69v59.69h-59.69v-59.69Zm0,60h59.69V-0.16h-59.69V-59.84Zm0,60h59.69V59.84h-59.69V0.16Zm0,60h59.69v59.69h-59.69V60.16Zm0,60h59.69v59.69h-59.69V120.16Zm-60-240h59.69v59.69h-59.69v-59.69Zm0,60h59.69V-0.16h-59.69V-59.84Zm0,60h59.69V59.84h-59.69V0.16Zm0,60h59.69v59.69h-59.69V60.16Zm0,60h59.69v59.69h-59.69V120.16Zm-60-240h59.69v59.69h-59.69v-59.69Zm0,60h59.69V-0.16h-59.69V-59.84Zm0,60h59.69V59.84h-59.69V0.16Zm0,60h59.69v59.69h-59.69V60.16Zm0,60h59.69v59.69h-59.69V120.16Zm-60-240h59.69v59.69h-59.69v-59.69Zm0,60h59.69V-0.16h-59.69V-59.84Zm0,60h59.69V59.84h-59.69V0.16Zm0,60h59.69v59.69h-59.69V60.16Zm0,60h59.69v59.69h-59.69V120.16Z"/><path class="cls-2" d="M33.2,26.09A15.1,15.1,0,0,1,29,15.49V15a14.86,14.86,0,0,0-9.24,4L30,29.29Z"/><path class="cls-2" d="M44.16,31a15.13,15.13,0,0,1-10.26-4.2L30.71,30,40.94,40.24A14.86,14.86,0,0,0,45,31H44.16Z"/><path class="cls-2" d="M26.8,33.91A15.1,15.1,0,0,1,31,44.51V45a14.86,14.86,0,0,0,9.24-4L30,30.71Z"/><path class="cls-2" d="M26.09,33.2l3.2-3.2L19.06,19.76A14.86,14.86,0,0,0,15,29H15.5A15,15,0,0,1,26.09,33.2Z"/><path class="cls-2" d="M15.52,30H15a14.88,14.88,0,0,0,4.06,10.24l6.33-6.33A14,14,0,0,0,15.52,30Z"/><path class="cls-2" d="M19.76,40.94A14.88,14.88,0,0,0,30,45V44.5a14.09,14.09,0,0,0-3.91-9.88Z"/><path class="cls-2" d="M44.48,30H45a14.88,14.88,0,0,0-4.06-10.24l-6.33,6.33A13.93,13.93,0,0,0,44.48,30Z"/><path class="cls-2" d="M40.24,19.06A14.88,14.88,0,0,0,30,15v0.5a14.1,14.1,0,0,0,3.91,9.88Z"/></svg>