<svg id="Layer_1" data-name="Layer 1" xmlns="http://www.w3.org/2000/svg" viewBox="0 0 60 60"><defs><style>.cls-1{fill:#808285;}.cls-2{fill:#fff;}</style></defs><path class="cls-1" d="M-180.5,120h360V-180h-360V120ZM119.66-179.84h59.69v59.69H119.66v-59.69Zm0,60h59.69v59.69H119.66v-59.69Zm0,60h59.69V-0.16H119.66V-59.84Zm0,60h59.69V59.84H119.66V0.16Zm0,60h59.69v59.69H119.66V60.16Zm-60-240h59.69v59.69H59.66v-59.69Zm0,60h59.69v59.69H59.66v-59.69Zm0,60h59.69V-0.16H59.66V-59.84Zm0,60h59.69V59.84H59.66V0.16Zm0,60h59.69v59.69H59.66V60.16Zm-60-240H59.34v59.69H-0.34v-59.69Zm0,60H59.34v59.69H-0.34v-59.69Zm0,60H59.34V-0.16H-0.34V-59.84Zm0,60H59.34V59.84H-0.34V0.16Zm0,60H59.34v59.69H-0.34V60.16Zm-60-240H-0.66v59.69H-60.34v-59.69Zm0,60H-0.66v59.69H-60.34v-59.69Zm0,60H-0.66V-0.16H-60.34V-59.84Zm0,60H-0.66V59.84H-60.34V0.16Zm0,60H-0.66v59.69H-60.34V60.16Zm-60-240h59.69v59.69h-59.69v-59.69Zm0,60h59.69v59.69h-59.69v-59.69Zm0,60h59.69V-0.16h-59.69V-59.84Zm0,60h59.69V59.84h-59.69V0.16Zm0,60h59.69v59.69h-59.69V60.16Zm-60-240h59.69v59.69h-59.69v-59.69Zm0,60h59.69v59.69h-59.69v-59.69Zm0,60h59.69V-0.16h-59.69V-59.84Zm0,60h59.69V59.84h-59.69V0.16Zm0,60h59.69v59.69h-59.69V60.16Z"/><path class="cls-2" d="M34,15H25a0.5,0.5,0,0,0-.5.5v29a0.5,0.5,0,0,0,.5.5h9a0.5,0.5,0,0,0,.5-0.5V42H31a0.5,0.5,0,0,1,0-1h3.5V40H32a0.5,0.5,0,0,1,0-1h2.5V38H31a0.5,0.5,0,0,1,0-1h3.5V36H32a0.5,0.5,0,0,1,0-1h2.5V34H31a0.5,0.5,0,0,1,0-1h3.5V32H32a0.5,0.5,0,0,1,0-1h2.5V30H31a0.5,0.5,0,0,1,0-1h3.5V28H32a0.5,0.5,0,0,1,0-1h2.5V26H31a0.5,0.5,0,0,1,0-1h3.5V24H32a0.5,0.5,0,0,1,0-1h2.5V22H31a0.5,0.5,0,0,1,0-1h3.5V20H32a0.5,0.5,0,0,1,0-1h2.5V18H31a0.5,0.5,0,0,1,0-1h3.5V15.5A0.5,0.5,0,0,0,34,15Z"/><rect class="cls-2" x="16.5" y="39" width="6" height="1"/><rect class="cls-2" x="16.5" y="21" width="6" height="17"/><path class="cls-2" d="M19.95,15.28a0.52,0.52,0,0,0-.89,0L16.69,20h5.62Z"/><path class="cls-2" d="M16.5,44.5a0.5,0.5,0,0,0,.5.5h5a0.5,0.5,0,0,0,.5-0.5V41h-6v3.5Z"/><path class="cls-2" d="M43,21H41.5V18.5A0.5,0.5,0,0,0,41,18H40.5V15.5A0.5,0.5,0,0,0,40,15H38a0.5,0.5,0,0,0-.5.5V18H37a0.5,0.5,0,0,0-.5.5V22h6v6.5a0.5,0.5,0,0,0,1,0v-7A0.5,0.5,0,0,0,43,21Z"/><rect class="cls-2" x="36.5" y="23" width="5" height="16"/><path class="cls-2" d="M38.54,44.69a0.5,0.5,0,0,0,.93,0L41.34,40H36.66Z"/></svg>