<svg id="Layer_1" data-name="Layer 1" xmlns="http://www.w3.org/2000/svg" viewBox="0 0 60 60"><defs><style>.cls-1{fill:#808285;}.cls-2{fill:#fff;}</style></defs><path class="cls-1" d="M-180,60H180V-240H-180V60ZM120.16-239.84h59.69v59.69H120.16v-59.69Zm0,60h59.69v59.69H120.16v-59.69Zm0,60h59.69v59.69H120.16v-59.69Zm0,60h59.69V-0.16H120.16V-59.84Zm0,60h59.69V59.84H120.16V0.16Zm-60-240h59.69v59.69H60.16v-59.69Zm0,60h59.69v59.69H60.16v-59.69Zm0,60h59.69v59.69H60.16v-59.69Zm0,60h59.69V-0.16H60.16V-59.84Zm0,60h59.69V59.84H60.16V0.16Zm-60-240H59.84v59.69H0.16v-59.69Zm0,60H59.84v59.69H0.16v-59.69Zm0,60H59.84v59.69H0.16v-59.69Zm0,60H59.84V-0.16H0.16V-59.84Zm0,60H59.84V59.84H0.16V0.16Zm-60-240H-0.16v59.69H-59.84v-59.69Zm0,60H-0.16v59.69H-59.84v-59.69Zm0,60H-0.16v59.69H-59.84v-59.69Zm0,60H-0.16V-0.16H-59.84V-59.84Zm0,60H-0.16V59.84H-59.84V0.16Zm-60-240h59.69v59.69h-59.69v-59.69Zm0,60h59.69v59.69h-59.69v-59.69Zm0,60h59.69v59.69h-59.69v-59.69Zm0,60h59.69V-0.16h-59.69V-59.84Zm0,60h59.69V59.84h-59.69V0.16Zm-60-240h59.69v59.69h-59.69v-59.69Zm0,60h59.69v59.69h-59.69v-59.69Zm0,60h59.69v59.69h-59.69v-59.69Zm0,60h59.69V-0.16h-59.69V-59.84Zm0,60h59.69V59.84h-59.69V0.16Z"/><ellipse class="cls-2" cx="35" cy="23" rx="4.5" ry="6"/><ellipse class="cls-2" cx="25" cy="23" rx="4.5" ry="6"/><ellipse class="cls-2" cx="41.5" cy="31.01" rx="3.5" ry="4.5"/><ellipse class="cls-2" cx="18.5" cy="31.01" rx="3.5" ry="4.5"/><path class="cls-2" d="M35.92,31.58a9.57,9.57,0,0,0-8.14-1.82A9.46,9.46,0,0,0,20.5,39.2a3.85,3.85,0,0,0,1.33,3.23c1,0.72,2.49.75,4.57,0.11a12.44,12.44,0,0,1,7.31,0,8.68,8.68,0,0,0,2.46.43,3.31,3.31,0,0,0,2-.59A4,4,0,0,0,39.5,39,9.46,9.46,0,0,0,35.92,31.58Z"/></svg>