<svg id="Layer_1" data-name="Layer 1" xmlns="http://www.w3.org/2000/svg" viewBox="0 0 60 60"><defs><style>.cls-1{fill:#808285;}.cls-2{fill:#fff;}</style></defs><path class="cls-1" d="M-300,120H60V-180H-300V120ZM0.16-179.84H59.84v59.69H0.16v-59.69Zm0,60H59.84v59.69H0.16v-59.69Zm0,60H59.84V-0.16H0.16V-59.84Zm0,60H59.84V59.84H0.16V0.16Zm0,60H59.84v59.69H0.16V60.16Zm-60-240H-0.16v59.69H-59.84v-59.69Zm0,60H-0.16v59.69H-59.84v-59.69Zm0,60H-0.16V-0.16H-59.84V-59.84Zm0,60H-0.16V59.84H-59.84V0.16Zm0,60H-0.16v59.69H-59.84V60.16Zm-60-240h59.69v59.69h-59.69v-59.69Zm0,60h59.69v59.69h-59.69v-59.69Zm0,60h59.69V-0.16h-59.69V-59.84Zm0,60h59.69V59.84h-59.69V0.16Zm0,60h59.69v59.69h-59.69V60.16Zm-60-240h59.69v59.69h-59.69v-59.69Zm0,60h59.69v59.69h-59.69v-59.69Zm0,60h59.69V-0.16h-59.69V-59.84Zm0,60h59.69V59.84h-59.69V0.16Zm0,60h59.69v59.69h-59.69V60.16Zm-60-240h59.69v59.69h-59.69v-59.69Zm0,60h59.69v59.69h-59.69v-59.69Zm0,60h59.69V-0.16h-59.69V-59.84Zm0,60h59.69V59.84h-59.69V0.16Zm0,60h59.69v59.69h-59.69V60.16Zm-60-240h59.69v59.69h-59.69v-59.69Zm0,60h59.69v59.69h-59.69v-59.69Zm0,60h59.69V-0.16h-59.69V-59.84Zm0,60h59.69V59.84h-59.69V0.16Zm0,60h59.69v59.69h-59.69V60.16Z"/><circle class="cls-2" cx="20.5" cy="31.5" r="1.5"/><path class="cls-2" d="M34,33H26a1,1,0,0,0,0,2h8A1,1,0,0,0,34,33Z"/><circle class="cls-2" cx="39.5" cy="31.5" r="1.5"/><path class="cls-2" d="M42.88,27l-2.47-8.25A2.48,2.48,0,0,0,38,17H22a2.48,2.48,0,0,0-2.39,1.78L17.12,27A2.5,2.5,0,0,0,15,29.5v7A2.51,2.51,0,0,0,17,39V41.5A1.5,1.5,0,0,0,18.5,43h2A1.5,1.5,0,0,0,22,41.5V39H38v2.5A1.5,1.5,0,0,0,39.5,43h2A1.5,1.5,0,0,0,43,41.5V39a2.51,2.51,0,0,0,2-2.45v-7A2.5,2.5,0,0,0,42.88,27ZM20.5,34A2.5,2.5,0,1,1,23,31.5,2.5,2.5,0,0,1,20.5,34ZM34,36H26a2,2,0,0,1,0-4h8A2,2,0,0,1,34,36Zm5.5-2A2.5,2.5,0,1,1,42,31.5,2.5,2.5,0,0,1,39.5,34Z"/></svg>