<svg id="Layer_1" data-name="Layer 1" xmlns="http://www.w3.org/2000/svg" viewBox="0 0 60 60"><defs><style>.cls-1{fill:#808285;}.cls-2{fill:#fff;}</style></defs><path class="cls-1" d="M-241,60H119V-240H-241V60ZM59.16-239.84h59.69v59.69H59.16v-59.69Zm0,60h59.69v59.69H59.16v-59.69Zm0,60h59.69v59.69H59.16v-59.69Zm0,60h59.69V-0.16H59.16V-59.84Zm0,60h59.69V59.84H59.16V0.16Zm-60-240H58.84v59.69H-0.84v-59.69Zm0,60H58.84v59.69H-0.84v-59.69Zm0,60H58.84v59.69H-0.84v-59.69Zm0,60H58.84V-0.16H-0.84V-59.84Zm0,60H58.84V59.84H-0.84V0.16Zm-60-240H-1.16v59.69H-60.84v-59.69Zm0,60H-1.16v59.69H-60.84v-59.69Zm0,60H-1.16v59.69H-60.84v-59.69Zm0,60H-1.16V-0.16H-60.84V-59.84Zm0,60H-1.16V59.84H-60.84V0.16Zm-60-240h59.69v59.69h-59.69v-59.69Zm0,60h59.69v59.69h-59.69v-59.69Zm0,60h59.69v59.69h-59.69v-59.69Zm0,60h59.69V-0.16h-59.69V-59.84Zm0,60h59.69V59.84h-59.69V0.16Zm-60-240h59.69v59.69h-59.69v-59.69Zm0,60h59.69v59.69h-59.69v-59.69Zm0,60h59.69v59.69h-59.69v-59.69Zm0,60h59.69V-0.16h-59.69V-59.84Zm0,60h59.69V59.84h-59.69V0.16Zm-60-240h59.69v59.69h-59.69v-59.69Zm0,60h59.69v59.69h-59.69v-59.69Zm0,60h59.69v59.69h-59.69v-59.69Zm0,60h59.69V-0.16h-59.69V-59.84Zm0,60h59.69V59.84h-59.69V0.16Z"/><path class="cls-2" d="M43.5,19H42V15.5a0.5,0.5,0,0,0-.5-0.5h-25a0.5,0.5,0,0,0-.5.5V24a0.5,0.5,0,0,0,.5.5h25A0.5,0.5,0,0,0,42,24V20h1v6.09L28.9,29a0.5,0.5,0,0,0-.4.49V34h-1a0.5,0.5,0,0,0-.5.5v10a0.5,0.5,0,0,0,.5.5h3a0.5,0.5,0,0,0,.5-0.5v-10a0.5,0.5,0,0,0-.5-0.5h-1V29.91L43.6,27A0.5,0.5,0,0,0,44,26.5v-7A0.5,0.5,0,0,0,43.5,19Z"/></svg>