<svg id="Layer_1" data-name="Layer 1" xmlns="http://www.w3.org/2000/svg" viewBox="0 0 60 60"><defs><style>.cls-1{fill:#808285;}.cls-2{fill:#fff;}</style></defs><path class="cls-1" d="M-180,300H180V0H-180V300ZM120.16,0.16h59.69V59.84H120.16V0.16Zm0,60h59.69v59.69H120.16V60.16Zm0,60h59.69v59.69H120.16V120.16Zm0,60h59.69v59.69H120.16V180.16Zm0,60h59.69v59.69H120.16V240.16Zm-60-240h59.69V59.84H60.16V0.16Zm0,60h59.69v59.69H60.16V60.16Zm0,60h59.69v59.69H60.16V120.16Zm0,60h59.69v59.69H60.16V180.16Zm0,60h59.69v59.69H60.16V240.16Zm-60-240H59.84V59.84H0.16V0.16Zm0,60H59.84v59.69H0.16V60.16Zm0,60H59.84v59.69H0.16V120.16Zm0,60H59.84v59.69H0.16V180.16Zm0,60H59.84v59.69H0.16V240.16Zm-60-240H-0.16V59.84H-59.84V0.16Zm0,60H-0.16v59.69H-59.84V60.16Zm0,60H-0.16v59.69H-59.84V120.16Zm0,60H-0.16v59.69H-59.84V180.16Zm0,60H-0.16v59.69H-59.84V240.16Zm-60-240h59.69V59.84h-59.69V0.16Zm0,60h59.69v59.69h-59.69V60.16Zm0,60h59.69v59.69h-59.69V120.16Zm0,60h59.69v59.69h-59.69V180.16Zm0,60h59.69v59.69h-59.69V240.16Zm-60-240h59.69V59.84h-59.69V0.16Zm0,60h59.69v59.69h-59.69V60.16Zm0,60h59.69v59.69h-59.69V120.16Zm0,60h59.69v59.69h-59.69V180.16Zm0,60h59.69v59.69h-59.69V240.16Z"/><path class="cls-2" d="M17,40.5a0.5,0.5,0,0,0,.5.5h2a0.5,0.5,0,0,0,.5-0.5v-2H17v2Z"/><path class="cls-2" d="M44.62,37.2c-1.56-1.71-5.73-3.58-5.91-3.66a0.49,0.49,0,0,0-.46,0,4,4,0,0,1-3.14.48c-2.13-.56-4.38-2.85-6.68-6.8C23.59,18.91,17.73,19,17.49,19a0.5,0.5,0,0,0-.42.25c-2.19,3.76-2.6,6.39-1.43,9.38,0.25,0.64.47,1.11,0.66,1.52a5.59,5.59,0,0,1,.7,3V37.5h3V32a0.51,0.51,0,0,1,.18-0.39,0.47,0.47,0,0,1,.39-0.11l0.12,0c1.74,0.29,3.92.66,5.85,5.17l0.35,0.83C28,40.05,28.35,41,30.5,41h3a49.62,49.62,0,0,0,10.13-1.28l0.27-.07a1.5,1.5,0,0,0,1-1A1.47,1.47,0,0,0,44.62,37.2Z"/></svg>