<svg id="Layer_1" data-name="Layer 1" xmlns="http://www.w3.org/2000/svg" viewBox="0 0 60 60"><defs><style>.cls-1{fill:#808285;}.cls-2{fill:#fff;}</style></defs><path class="cls-1" d="M0,180H360V-120H0V180ZM300.16-119.84h59.69v59.69H300.16v-59.69Zm0,60h59.69V-0.16H300.16V-59.84Zm0,60h59.69V59.84H300.16V0.16Zm0,60h59.69v59.69H300.16V60.16Zm0,60h59.69v59.69H300.16V120.16Zm-60-240h59.69v59.69H240.16v-59.69Zm0,60h59.69V-0.16H240.16V-59.84Zm0,60h59.69V59.84H240.16V0.16Zm0,60h59.69v59.69H240.16V60.16Zm0,60h59.69v59.69H240.16V120.16Zm-60-240h59.69v59.69H180.16v-59.69Zm0,60h59.69V-0.16H180.16V-59.84Zm0,60h59.69V59.84H180.16V0.16Zm0,60h59.69v59.69H180.16V60.16Zm0,60h59.69v59.69H180.16V120.16Zm-60-240h59.69v59.69H120.16v-59.69Zm0,60h59.69V-0.16H120.16V-59.84Zm0,60h59.69V59.84H120.16V0.16Zm0,60h59.69v59.69H120.16V60.16Zm0,60h59.69v59.69H120.16V120.16Zm-60-240h59.69v59.69H60.16v-59.69Zm0,60h59.69V-0.16H60.16V-59.84Zm0,60h59.69V59.84H60.16V0.16Zm0,60h59.69v59.69H60.16V60.16Zm0,60h59.69v59.69H60.16V120.16Zm-60-240H59.84v59.69H0.16v-59.69Zm0,60H59.84V-0.16H0.16V-59.84Zm0,60H59.84V59.84H0.16V0.16Zm0,60H59.84v59.69H0.16V60.16Zm0,60H59.84v59.69H0.16V120.16Z"/><path class="cls-2" d="M27.91,38h4.17a1.5,1.5,0,0,1,1.41-1H43V19.5a0.5,0.5,0,0,0-.5-0.5h-25a0.5,0.5,0,0,0-.5.5V37h9.5A1.5,1.5,0,0,1,27.91,38ZM19,35.5v-14a0.5,0.5,0,0,1,.5-0.5h21a0.5,0.5,0,0,1,.5.5v14a0.5,0.5,0,0,1-.5.5h-21A0.5,0.5,0,0,1,19,35.5Z"/><path class="cls-2" d="M20,35H40V22H20V35Zm12.5-2a0.5,0.5,0,1,1-.5.5A0.5,0.5,0,0,1,32.5,33Zm-2,0a0.5,0.5,0,1,1-.5.5A0.5,0.5,0,0,1,30.5,33Zm-2,0a0.5,0.5,0,1,1-.5.5A0.5,0.5,0,0,1,28.5,33Z"/><path class="cls-2" d="M44.5,38h-11a0.5,0.5,0,0,0-.5.5V39H27V38.5a0.5,0.5,0,0,0-.5-0.5h-11a0.5,0.5,0,0,0-.5.5v2a0.5,0.5,0,0,0,.5.5h29a0.5,0.5,0,0,0,.5-0.5v-2A0.5,0.5,0,0,0,44.5,38Z"/></svg>