<svg id="Layer_1" data-name="Layer 1" xmlns="http://www.w3.org/2000/svg" viewBox="0 0 60 60"><defs><style>.cls-1{fill:#808285;}.cls-2{fill:#fff;}</style></defs><path class="cls-1" d="M-120,120H240V-180H-120V120ZM180.16-179.84h59.69v59.69H180.16v-59.69Zm0,60h59.69v59.69H180.16v-59.69Zm0,60h59.69V-0.16H180.16V-59.84Zm0,60h59.69V59.84H180.16V0.16Zm0,60h59.69v59.69H180.16V60.16Zm-60-240h59.69v59.69H120.16v-59.69Zm0,60h59.69v59.69H120.16v-59.69Zm0,60h59.69V-0.16H120.16V-59.84Zm0,60h59.69V59.84H120.16V0.16Zm0,60h59.69v59.69H120.16V60.16Zm-60-240h59.69v59.69H60.16v-59.69Zm0,60h59.69v59.69H60.16v-59.69Zm0,60h59.69V-0.16H60.16V-59.84Zm0,60h59.69V59.84H60.16V0.16Zm0,60h59.69v59.69H60.16V60.16Zm-60-240H59.84v59.69H0.16v-59.69Zm0,60H59.84v59.69H0.16v-59.69Zm0,60H59.84V-0.16H0.16V-59.84Zm0,60H59.84V59.84H0.16V0.16Zm0,60H59.84v59.69H0.16V60.16Zm-60-240H-0.16v59.69H-59.84v-59.69Zm0,60H-0.16v59.69H-59.84v-59.69Zm0,60H-0.16V-0.16H-59.84V-59.84Zm0,60H-0.16V59.84H-59.84V0.16Zm0,60H-0.16v59.69H-59.84V60.16Zm-60-240h59.69v59.69h-59.69v-59.69Zm0,60h59.69v59.69h-59.69v-59.69Zm0,60h59.69V-0.16h-59.69V-59.84Zm0,60h59.69V59.84h-59.69V0.16Zm0,60h59.69v59.69h-59.69V60.16Z"/><path class="cls-2" d="M33,17.91a3.89,3.89,0,0,0-1.15-2.77,0.5,0.5,0,0,0-.71,0l-4,4a0.5,0.5,0,0,0-.15.35V23h6V17.91Z"/><path class="cls-2" d="M25,44.5a0.5,0.5,0,0,0,.5.5h9a0.5,0.5,0,0,0,.5-0.5V36H25v8.5Z"/><path class="cls-2" d="M34.5,33H34V24H26v9H25.5a0.5,0.5,0,0,0-.5.5V35H35V33.5A0.5,0.5,0,0,0,34.5,33ZM32,31.5a0.5,0.5,0,1,1-1,0v-6a0.5,0.5,0,0,1,1,0v6Z"/></svg>