<svg id="Layer_1" data-name="Layer 1" xmlns="http://www.w3.org/2000/svg" viewBox="0 0 60 60"><defs><style>.cls-1{fill:#808285;}.cls-2{fill:#fff;}</style></defs><path class="cls-1" d="M0,60.5H360v-300H0v300ZM300.16-239.34h59.69v59.69H300.16v-59.69Zm0,60h59.69v59.69H300.16v-59.69Zm0,60h59.69v59.69H300.16v-59.69Zm0,60h59.69V0.34H300.16V-59.34Zm0,60h59.69V60.34H300.16V0.66Zm-60-240h59.69v59.69H240.16v-59.69Zm0,60h59.69v59.69H240.16v-59.69Zm0,60h59.69v59.69H240.16v-59.69Zm0,60h59.69V0.34H240.16V-59.34Zm0,60h59.69V60.34H240.16V0.66Zm-60-240h59.69v59.69H180.16v-59.69Zm0,60h59.69v59.69H180.16v-59.69Zm0,60h59.69v59.69H180.16v-59.69Zm0,60h59.69V0.34H180.16V-59.34Zm0,60h59.69V60.34H180.16V0.66Zm-60-240h59.69v59.69H120.16v-59.69Zm0,60h59.69v59.69H120.16v-59.69Zm0,60h59.69v59.69H120.16v-59.69Zm0,60h59.69V0.34H120.16V-59.34Zm0,60h59.69V60.34H120.16V0.66Zm-60-240h59.69v59.69H60.16v-59.69Zm0,60h59.69v59.69H60.16v-59.69Zm0,60h59.69v59.69H60.16v-59.69Zm0,60h59.69V0.34H60.16V-59.34Zm0,60h59.69V60.34H60.16V0.66Zm-60-240H59.84v59.69H0.16v-59.69Zm0,60H59.84v59.69H0.16v-59.69Zm0,60H59.84v59.69H0.16v-59.69Zm0,60H59.84V0.34H0.16V-59.34Zm0,60H59.84V60.34H0.16V0.66Z"/><path class="cls-2" d="M40.5,30.5a4.45,4.45,0,0,0-1.55.29l-0.45-.91a5.46,5.46,0,0,1,2-.38h2A0.5,0.5,0,0,0,43,29c0-.17,0-0.33,0-0.5H30.71l-5,5h-2a4.5,4.5,0,1,0,0,3H34.5A0.5,0.5,0,0,0,35,36V35a5.5,5.5,0,0,1,2.61-4.67l0.45,0.9A4.49,4.49,0,1,0,40.5,30.5Zm-21,8a3.5,3.5,0,1,1,3.15-5H19.5a1.5,1.5,0,0,0,0,3h3.15A3.5,3.5,0,0,1,19.5,38.5ZM23,35a3.46,3.46,0,0,1-.05.5h-2a1.4,1.4,0,0,0,0-1h2A3.46,3.46,0,0,1,23,35Zm-4,0a0.5,0.5,0,1,1,.5.5A0.5,0.5,0,0,1,19,35Zm4.95-.5h2.34l1,1H23.95A4.41,4.41,0,0,0,24,35,4.41,4.41,0,0,0,23.95,34.5Zm16.55,4a3.5,3.5,0,0,1-2-6.37L39.42,34a1.5,1.5,0,1,0,1.08-.46l-0.18,0-0.91-1.83a3.45,3.45,0,0,1,1.09-.19A3.5,3.5,0,0,1,40.5,38.5Zm0-4a0.5,0.5,0,1,1-.5.5A0.5,0.5,0,0,1,40.5,34.5Z"/><path class="cls-2" d="M24.79,33l5.35-5.35a0.5,0.5,0,0,1,.35-0.15H42.86a8.51,8.51,0,0,0-8.36-7,0.5,0.5,0,0,0-.5.5v0.5H32.5a0.5,0.5,0,0,0,0,1H34v1H32.74a4.09,4.09,0,0,0-3.53,2h-2.5L25,23.82a4.53,4.53,0,0,0-3.18-1.32H15.5a0.5,0.5,0,0,0-.35.85Z"/></svg>