<svg id="Layer_1" data-name="Layer 1" xmlns="http://www.w3.org/2000/svg" viewBox="0 0 60 60"><defs><style>.cls-1{fill:#808285;}.cls-2{fill:#fff;}</style></defs><path class="cls-1" d="M-120,180H240V-120H-120V180ZM180.16-119.84h59.69v59.69H180.16v-59.69Zm0,60h59.69V-0.16H180.16V-59.84Zm0,60h59.69V59.84H180.16V0.16Zm0,60h59.69v59.69H180.16V60.16Zm0,60h59.69v59.69H180.16V120.16Zm-60-240h59.69v59.69H120.16v-59.69Zm0,60h59.69V-0.16H120.16V-59.84Zm0,60h59.69V59.84H120.16V0.16Zm0,60h59.69v59.69H120.16V60.16Zm0,60h59.69v59.69H120.16V120.16Zm-60-240h59.69v59.69H60.16v-59.69Zm0,60h59.69V-0.16H60.16V-59.84Zm0,60h59.69V59.84H60.16V0.16Zm0,60h59.69v59.69H60.16V60.16Zm0,60h59.69v59.69H60.16V120.16Zm-60-240H59.84v59.69H0.16v-59.69Zm0,60H59.84V-0.16H0.16V-59.84Zm0,60H59.84V59.84H0.16V0.16Zm0,60H59.84v59.69H0.16V60.16Zm0,60H59.84v59.69H0.16V120.16Zm-60-240H-0.16v59.69H-59.84v-59.69Zm0,60H-0.16V-0.16H-59.84V-59.84Zm0,60H-0.16V59.84H-59.84V0.16Zm0,60H-0.16v59.69H-59.84V60.16Zm0,60H-0.16v59.69H-59.84V120.16Zm-60-240h59.69v59.69h-59.69v-59.69Zm0,60h59.69V-0.16h-59.69V-59.84Zm0,60h59.69V59.84h-59.69V0.16Zm0,60h59.69v59.69h-59.69V60.16Zm0,60h59.69v59.69h-59.69V120.16Z"/><path class="cls-2" d="M23,28.67v1a38.88,38.88,0,0,1,14,0v-1A4.65,4.65,0,0,1,41,24V23.5A4.5,4.5,0,0,0,36.5,19h-13A4.5,4.5,0,0,0,19,23.5V24A4.65,4.65,0,0,1,23,28.67Z"/><path class="cls-2" d="M43.91,26a3.48,3.48,0,0,0-2.43-1H41.31A3.63,3.63,0,0,0,38,28.67v2.2a37.84,37.84,0,0,0-16,0v-2.2A3.63,3.63,0,0,0,18.69,25H18.52a3.51,3.51,0,0,0-2.43,1A3.49,3.49,0,0,0,17,31.65V36.5A2.5,2.5,0,0,0,19.5,39H20v1.5a0.5,0.5,0,0,0,.5.5h2a0.5,0.5,0,0,0,.5-0.5V39H37v1.5a0.5,0.5,0,0,0,.5.5h2a0.5,0.5,0,0,0,.5-0.5V39h0.5A2.5,2.5,0,0,0,43,36.5V31.65A3.49,3.49,0,0,0,43.91,26ZM22,40H21V39h1v1Zm17,0H38V39h1v1Z"/></svg>