<svg id="Layer_1" data-name="Layer 1" xmlns="http://www.w3.org/2000/svg" viewBox="0 0 60 60"><defs><style>.cls-1{fill:#808285;}.cls-2{fill:#fff;}</style></defs><path class="cls-1" d="M-120,240H240V-60H-120V240ZM180.16-59.84h59.69V-0.16H180.16V-59.84Zm0,60h59.69V59.84H180.16V0.16Zm0,60h59.69v59.69H180.16V60.16Zm0,60h59.69v59.69H180.16V120.16Zm0,60h59.69v59.69H180.16V180.16Zm-60-240h59.69V-0.16H120.16V-59.84Zm0,60h59.69V59.84H120.16V0.16Zm0,60h59.69v59.69H120.16V60.16Zm0,60h59.69v59.69H120.16V120.16Zm0,60h59.69v59.69H120.16V180.16Zm-60-240h59.69V-0.16H60.16V-59.84Zm0,60h59.69V59.84H60.16V0.16Zm0,60h59.69v59.69H60.16V60.16Zm0,60h59.69v59.69H60.16V120.16Zm0,60h59.69v59.69H60.16V180.16Zm-60-240H59.84V-0.16H0.16V-59.84Zm0,60H59.84V59.84H0.16V0.16Zm0,60H59.84v59.69H0.16V60.16Zm0,60H59.84v59.69H0.16V120.16Zm0,60H59.84v59.69H0.16V180.16Zm-60-240H-0.16V-0.16H-59.84V-59.84Zm0,60H-0.16V59.84H-59.84V0.16Zm0,60H-0.16v59.69H-59.84V60.16Zm0,60H-0.16v59.69H-59.84V120.16Zm0,60H-0.16v59.69H-59.84V180.16Zm-60-240h59.69V-0.16h-59.69V-59.84Zm0,60h59.69V59.84h-59.69V0.16Zm0,60h59.69v59.69h-59.69V60.16Zm0,60h59.69v59.69h-59.69V120.16Zm0,60h59.69v59.69h-59.69V180.16Z"/><path class="cls-2" d="M17.5,20h-2a0.5,0.5,0,0,0,0,1H17V39.5a0.5,0.5,0,0,0,1,0v-19A0.5,0.5,0,0,0,17.5,20Z"/><rect class="cls-2" x="33" y="27" width="5" height="5"/><path class="cls-2" d="M44.5,22h-25a0.5,0.5,0,0,0-.5.5v14a0.5,0.5,0,0,0,.5.5H23v2.5a0.5,0.5,0,0,0,.5.5H25V38.5a0.5,0.5,0,0,1,1,0V40h1V38.5a0.5,0.5,0,0,1,1,0V40h1V38.5a0.5,0.5,0,0,1,1,0V40h1V38.5a0.5,0.5,0,0,1,1,0V40h1V38.5a0.5,0.5,0,0,1,1,0V40h1V38.5a0.5,0.5,0,0,1,1,0V40h1V38.5a0.5,0.5,0,0,1,1,0V40h1V38.5a0.5,0.5,0,0,1,1,0V40h1.5a0.5,0.5,0,0,0,.5-0.5V37h2.5a0.5,0.5,0,0,0,.5-0.5v-14A0.5,0.5,0,0,0,44.5,22Zm-4,8a0.5,0.5,0,0,1,0,1H39v1.5a0.5,0.5,0,0,1-.5.5H37v1.5a0.5,0.5,0,0,1-1,0V33H35v1.5a0.5,0.5,0,0,1-1,0V33H32.5a0.5,0.5,0,0,1-.5-0.5V31H30.5a0.5,0.5,0,0,1,0-1H32V29H30.5a0.5,0.5,0,0,1,0-1H32V26.5a0.5,0.5,0,0,1,.5-0.5H34V24.5a0.5,0.5,0,0,1,1,0V26h1V24.5a0.5,0.5,0,0,1,1,0V26h1.5a0.5,0.5,0,0,1,.5.5V28h1.5a0.5,0.5,0,0,1,0,1H39v1h1.5Z"/></svg>