<svg id="Layer_1" data-name="Layer 1" xmlns="http://www.w3.org/2000/svg" viewBox="0 0 60 60"><defs><style>.cls-1{fill:#808285;}.cls-2{fill:#fff;}</style></defs><path class="cls-1" d="M-240,300H120V0H-240V300ZM60.16,0.16h59.69V59.84H60.16V0.16Zm0,60h59.69v59.69H60.16V60.16Zm0,60h59.69v59.69H60.16V120.16Zm0,60h59.69v59.69H60.16V180.16Zm0,60h59.69v59.69H60.16V240.16Zm-60-240H59.84V59.84H0.16V0.16Zm0,60H59.84v59.69H0.16V60.16Zm0,60H59.84v59.69H0.16V120.16Zm0,60H59.84v59.69H0.16V180.16Zm0,60H59.84v59.69H0.16V240.16Zm-60-240H-0.16V59.84H-59.84V0.16Zm0,60H-0.16v59.69H-59.84V60.16Zm0,60H-0.16v59.69H-59.84V120.16Zm0,60H-0.16v59.69H-59.84V180.16Zm0,60H-0.16v59.69H-59.84V240.16Zm-60-240h59.69V59.84h-59.69V0.16Zm0,60h59.69v59.69h-59.69V60.16Zm0,60h59.69v59.69h-59.69V120.16Zm0,60h59.69v59.69h-59.69V180.16Zm0,60h59.69v59.69h-59.69V240.16Zm-60-240h59.69V59.84h-59.69V0.16Zm0,60h59.69v59.69h-59.69V60.16Zm0,60h59.69v59.69h-59.69V120.16Zm0,60h59.69v59.69h-59.69V180.16Zm0,60h59.69v59.69h-59.69V240.16Zm-60-240h59.69V59.84h-59.69V0.16Zm0,60h59.69v59.69h-59.69V60.16Zm0,60h59.69v59.69h-59.69V120.16Zm0,60h59.69v59.69h-59.69V180.16Zm0,60h59.69v59.69h-59.69V240.16Z"/><circle class="cls-2" cx="25.5" cy="30.5" r="0.5"/><circle class="cls-2" cx="34.5" cy="30.5" r="0.5"/><path class="cls-2" d="M42.55,28.67a12.94,12.94,0,0,0-12-9.64c0.08-.8.57-2.48,3.1-3a0.5,0.5,0,0,0-.21-1,4.59,4.59,0,0,0-3.58,2.76A3.54,3.54,0,0,0,27.61,16a0.5,0.5,0,0,0-.22,1,3.13,3.13,0,0,1,1.92,2,12.94,12.94,0,0,0-11.87,9.64,3.5,3.5,0,0,0,0,6.67,13,13,0,0,0,25.11,0A3.5,3.5,0,0,0,42.55,28.67ZM28.33,34a0.5,0.5,0,0,1,.64.3,1.13,1.13,0,0,0,2.06,0,0.5,0.5,0,0,1,.94.33,2.13,2.13,0,0,1-3.94,0A0.5,0.5,0,0,1,28.33,34ZM25.5,29A1.5,1.5,0,1,1,24,30.5,1.5,1.5,0,0,1,25.5,29Zm10.32,8.89a9.1,9.1,0,0,1-11.63,0,0.5,0.5,0,0,1,.63-0.77,8.11,8.11,0,0,0,10.37,0A0.5,0.5,0,0,1,35.82,37.89ZM34.5,32A1.5,1.5,0,1,1,36,30.5,1.5,1.5,0,0,1,34.5,32Z"/></svg>