<svg id="Layer_1" data-name="Layer 1" xmlns="http://www.w3.org/2000/svg" viewBox="0 0 60 60"><defs><style>.cls-1{fill:#808285;}.cls-2{fill:#fff;}</style></defs><path class="cls-1" d="M-240,240.5H120v-300H-240v300ZM60.16-59.34h59.69V0.34H60.16V-59.34Zm0,60h59.69V60.34H60.16V0.66Zm0,60h59.69v59.69H60.16V60.66Zm0,60h59.69v59.69H60.16V120.66Zm0,60h59.69v59.69H60.16V180.66Zm-60-240H59.84V0.34H0.16V-59.34Zm0,60H59.84V60.34H0.16V0.66Zm0,60H59.84v59.69H0.16V60.66Zm0,60H59.84v59.69H0.16V120.66Zm0,60H59.84v59.69H0.16V180.66Zm-60-240H-0.16V0.34H-59.84V-59.34Zm0,60H-0.16V60.34H-59.84V0.66Zm0,60H-0.16v59.69H-59.84V60.66Zm0,60H-0.16v59.69H-59.84V120.66Zm0,60H-0.16v59.69H-59.84V180.66Zm-60-240h59.69V0.34h-59.69V-59.34Zm0,60h59.69V60.34h-59.69V0.66Zm0,60h59.69v59.69h-59.69V60.66Zm0,60h59.69v59.69h-59.69V120.66Zm0,60h59.69v59.69h-59.69V180.66Zm-60-240h59.69V0.34h-59.69V-59.34Zm0,60h59.69V60.34h-59.69V0.66Zm0,60h59.69v59.69h-59.69V60.66Zm0,60h59.69v59.69h-59.69V120.66Zm0,60h59.69v59.69h-59.69V180.66Zm-60-240h59.69V0.34h-59.69V-59.34Zm0,60h59.69V60.34h-59.69V0.66Zm0,60h59.69v59.69h-59.69V60.66Zm0,60h59.69v59.69h-59.69V120.66Zm0,60h59.69v59.69h-59.69V180.66Z"/><circle class="cls-2" cx="33.5" cy="31" r="2.5"/><path class="cls-2" d="M33.5,24.5A6.5,6.5,0,1,0,40,31,6.51,6.51,0,0,0,33.5,24.5Zm0,10A3.5,3.5,0,1,1,37,31,3.5,3.5,0,0,1,33.5,34.5Z"/><path class="cls-2" d="M43.5,19.5h-15a0.5,0.5,0,0,0-.35.15L26.29,21.5H23V20a0.5,0.5,0,0,0-.5-0.5h-5a0.5,0.5,0,0,0-.5.5v1.5H16.5A1.5,1.5,0,0,0,15,23v1.5h7.5a0.5,0.5,0,0,1,.5.5V40.5H43.5A1.5,1.5,0,0,0,45,39V21A1.5,1.5,0,0,0,43.5,19.5ZM22,21.5H18v-1h4v1Zm9.5,0h4a0.5,0.5,0,0,1,0,1h-4A0.5,0.5,0,0,1,31.5,21.5Zm2,17A7.5,7.5,0,1,1,41,31,7.51,7.51,0,0,1,33.5,38.5ZM43,24a0.5,0.5,0,0,1-.5.5h-3A0.5,0.5,0,0,1,39,24V22a0.5,0.5,0,0,1,.5-0.5h3a0.5,0.5,0,0,1,.5.5v2Z"/><rect class="cls-2" x="40" y="22.5" width="2" height="1"/><path class="cls-2" d="M15,39a1.5,1.5,0,0,0,1.5,1.5H22v-15H15V39Z"/></svg>