<svg id="Layer_1" data-name="Layer 1" xmlns="http://www.w3.org/2000/svg" viewBox="0 0 60 60"><defs><style>.cls-1{fill:#808285;}.cls-2{fill:#fff;}</style></defs><path class="cls-1" d="M-300,240H60V-60H-300V240ZM0.16-59.84H59.84V-0.16H0.16V-59.84Zm0,60H59.84V59.84H0.16V0.16Zm0,60H59.84v59.69H0.16V60.16Zm0,60H59.84v59.69H0.16V120.16Zm0,60H59.84v59.69H0.16V180.16Zm-60-240H-0.16V-0.16H-59.84V-59.84Zm0,60H-0.16V59.84H-59.84V0.16Zm0,60H-0.16v59.69H-59.84V60.16Zm0,60H-0.16v59.69H-59.84V120.16Zm0,60H-0.16v59.69H-59.84V180.16Zm-60-240h59.69V-0.16h-59.69V-59.84Zm0,60h59.69V59.84h-59.69V0.16Zm0,60h59.69v59.69h-59.69V60.16Zm0,60h59.69v59.69h-59.69V120.16Zm0,60h59.69v59.69h-59.69V180.16Zm-60-240h59.69V-0.16h-59.69V-59.84Zm0,60h59.69V59.84h-59.69V0.16Zm0,60h59.69v59.69h-59.69V60.16Zm0,60h59.69v59.69h-59.69V120.16Zm0,60h59.69v59.69h-59.69V180.16Zm-60-240h59.69V-0.16h-59.69V-59.84Zm0,60h59.69V59.84h-59.69V0.16Zm0,60h59.69v59.69h-59.69V60.16Zm0,60h59.69v59.69h-59.69V120.16Zm0,60h59.69v59.69h-59.69V180.16Zm-60-240h59.69V-0.16h-59.69V-59.84Zm0,60h59.69V59.84h-59.69V0.16Zm0,60h59.69v59.69h-59.69V60.16Zm0,60h59.69v59.69h-59.69V120.16Zm0,60h59.69v59.69h-59.69V180.16Z"/><path class="cls-2" d="M23.5,15A8.5,8.5,0,1,0,32,23.5,8.51,8.51,0,0,0,23.5,15Zm0,15A6.5,6.5,0,1,1,30,23.5,6.51,6.51,0,0,1,23.5,30Z"/><path class="cls-2" d="M23.5,18A5.5,5.5,0,1,0,29,23.5,5.51,5.51,0,0,0,23.5,18Zm0,2A3.5,3.5,0,0,0,20,23.5a0.5,0.5,0,0,1-1,0A4.5,4.5,0,0,1,23.5,19,0.5,0.5,0,0,1,23.5,20Z"/><path class="cls-2" d="M42.5,25h-9a0.5,0.5,0,0,0-.5.5v12a0.5,0.5,0,0,0,.5.5h9A2.5,2.5,0,0,0,45,35.5v-8A2.5,2.5,0,0,0,42.5,25Zm0,4h-4a0.5,0.5,0,0,1,0-1h4A0.5,0.5,0,0,1,42.5,29Z"/><path class="cls-2" d="M23.5,33a9.4,9.4,0,0,1-2.5-.34V37h5V32.65A9.42,9.42,0,0,1,23.5,33Zm1,2h-2a0.5,0.5,0,0,1,0-1h2A0.5,0.5,0,0,1,24.5,35Z"/><path class="cls-2" d="M27,32.32V37.5a0.5,0.5,0,0,1-.5.5h-6a0.5,0.5,0,0,1-.5-0.5V32.32a9.56,9.56,0,0,1-3-1.92V42.5A2.5,2.5,0,0,0,19.5,45h8A2.5,2.5,0,0,0,30,42.5V34h2V29H31.23A9.57,9.57,0,0,1,27,32.32Z"/></svg>