<svg id="Layer_1" data-name="Layer 1" xmlns="http://www.w3.org/2000/svg" viewBox="0 0 60 60"><defs><style>.cls-1{fill:#808285;}.cls-2{fill:#fff;}</style></defs><path class="cls-1" d="M-60,240H300V-60H-60V240ZM240.16-59.84h59.69V-0.16H240.16V-59.84Zm0,60h59.69V59.84H240.16V0.16Zm0,60h59.69v59.69H240.16V60.16Zm0,60h59.69v59.69H240.16V120.16Zm0,60h59.69v59.69H240.16V180.16Zm-60-240h59.69V-0.16H180.16V-59.84Zm0,60h59.69V59.84H180.16V0.16Zm0,60h59.69v59.69H180.16V60.16Zm0,60h59.69v59.69H180.16V120.16Zm0,60h59.69v59.69H180.16V180.16Zm-60-240h59.69V-0.16H120.16V-59.84Zm0,60h59.69V59.84H120.16V0.16Zm0,60h59.69v59.69H120.16V60.16Zm0,60h59.69v59.69H120.16V120.16Zm0,60h59.69v59.69H120.16V180.16Zm-60-240h59.69V-0.16H60.16V-59.84Zm0,60h59.69V59.84H60.16V0.16Zm0,60h59.69v59.69H60.16V60.16Zm0,60h59.69v59.69H60.16V120.16Zm0,60h59.69v59.69H60.16V180.16Zm-60-240H59.84V-0.16H0.16V-59.84Zm0,60H59.84V59.84H0.16V0.16Zm0,60H59.84v59.69H0.16V60.16Zm0,60H59.84v59.69H0.16V120.16Zm0,60H59.84v59.69H0.16V180.16Zm-60-240H-0.16V-0.16H-59.84V-59.84Zm0,60H-0.16V59.84H-59.84V0.16Zm0,60H-0.16v59.69H-59.84V60.16Zm0,60H-0.16v59.69H-59.84V120.16Zm0,60H-0.16v59.69H-59.84V180.16Z"/><rect class="cls-2" x="21" y="20" width="18" height="20"/><path class="cls-2" d="M36.5,15h-13A2.5,2.5,0,0,0,21,17.5V19H39V17.5A2.5,2.5,0,0,0,36.5,15Zm-6,3h-1a0.5,0.5,0,0,1,0-1h1A0.5,0.5,0,0,1,30.5,18Z"/><path class="cls-2" d="M21,42.5A2.5,2.5,0,0,0,23.5,45h13A2.5,2.5,0,0,0,39,42.5V41H21v1.5Zm8.5-.5h1a0.5,0.5,0,0,1,0,1h-1A0.5,0.5,0,0,1,29.5,42Z"/></svg>