<svg id="Layer_1" data-name="Layer 1" xmlns="http://www.w3.org/2000/svg" viewBox="0 0 60 60"><defs><style>.cls-1{fill:#808285;}.cls-2{fill:#fff;}</style></defs><path class="cls-1" d="M-240,120H120V-180H-240V120ZM60.16-179.84h59.69v59.69H60.16v-59.69Zm0,60h59.69v59.69H60.16v-59.69Zm0,60h59.69V-0.16H60.16V-59.84Zm0,60h59.69V59.84H60.16V0.16Zm0,60h59.69v59.69H60.16V60.16Zm-60-240H59.84v59.69H0.16v-59.69Zm0,60H59.84v59.69H0.16v-59.69Zm0,60H59.84V-0.16H0.16V-59.84Zm0,60H59.84V59.84H0.16V0.16Zm0,60H59.84v59.69H0.16V60.16Zm-60-240H-0.16v59.69H-59.84v-59.69Zm0,60H-0.16v59.69H-59.84v-59.69Zm0,60H-0.16V-0.16H-59.84V-59.84Zm0,60H-0.16V59.84H-59.84V0.16Zm0,60H-0.16v59.69H-59.84V60.16Zm-60-240h59.69v59.69h-59.69v-59.69Zm0,60h59.69v59.69h-59.69v-59.69Zm0,60h59.69V-0.16h-59.69V-59.84Zm0,60h59.69V59.84h-59.69V0.16Zm0,60h59.69v59.69h-59.69V60.16Zm-60-240h59.69v59.69h-59.69v-59.69Zm0,60h59.69v59.69h-59.69v-59.69Zm0,60h59.69V-0.16h-59.69V-59.84Zm0,60h59.69V59.84h-59.69V0.16Zm0,60h59.69v59.69h-59.69V60.16Zm-60-240h59.69v59.69h-59.69v-59.69Zm0,60h59.69v59.69h-59.69v-59.69Zm0,60h59.69V-0.16h-59.69V-59.84Zm0,60h59.69V59.84h-59.69V0.16Zm0,60h59.69v59.69h-59.69V60.16Z"/><path class="cls-2" d="M45,26.37C45,22.68,42.5,20,39,20a6.25,6.25,0,0,0-1.33.14A9.93,9.93,0,0,1,38,22.5a11,11,0,0,1-3.71,8.33,6.15,6.15,0,0,0,3.88,3.07l-1.11,1.84a0.5,0.5,0,0,0,.43.76H38v6a0.5,0.5,0,0,0,1,0v-6h1.5a0.5,0.5,0,0,0,.43-0.76l-1.09-1.83C42.66,33.39,45,30.1,45,26.37Z"/><path class="cls-2" d="M22,22.5a9.93,9.93,0,0,1,.28-2.36A6.25,6.25,0,0,0,21,20c-3.45,0-6,2.68-6,6.37s2.34,7,5.17,7.55l-1.09,1.83a0.5,0.5,0,0,0,.43.76H21v6a0.5,0.5,0,0,0,1,0v-6h0.5a0.5,0.5,0,0,0,.43-0.76L21.82,33.9a6.15,6.15,0,0,0,3.88-3.07A11,11,0,0,1,22,22.5Z"/><path class="cls-2" d="M37,22.5c0-4.35-2.94-7.5-7-7.5s-7,3.15-7,7.5,2.8,8.35,6.16,8.92l-1.09,1.82a0.5,0.5,0,0,0,.43.76H29V44.5a0.5,0.5,0,0,0,1,0V34h1.5a0.5,0.5,0,0,0,.43-0.76l-1.09-1.82C34.2,30.85,37,26.93,37,22.5ZM30,18a4,4,0,0,0-4,4,0.5,0.5,0,0,1-1,0,5,5,0,0,1,5-5A0.5,0.5,0,0,1,30,18Z"/></svg>